<svg xmlns="http://www.w3.org/2000/svg" version="1.1" xmlns:xlink="http://www.w3.org/1999/xlink" xmlns:svgjs="http://svgjs.dev/svgjs" width="1000" height="1000" viewBox="0 0 1000 1000"><rect width="1000" height="1000" fill="#ffffff"></rect><g transform="matrix(0.7,0,0,0.7,149.57575757575756,456.749643700828)"><svg viewBox="0 0 396 49" data-background-color="#ffffff" preserveAspectRatio="xMidYMid meet" height="123" width="1000" xmlns="http://www.w3.org/2000/svg" xmlns:xlink="http://www.w3.org/1999/xlink"><g id="tight-bounds" transform="matrix(1,0,0,1,0.2400000000000091,0.11402391009787038)"><svg viewBox="0 0 395.52 48.77195217980427" height="48.77195217980427" width="395.52"><g><svg viewBox="0 0 487.41492451792067 60.10360383877158" height="48.77195217980427" width="395.52"><g><rect width="5.39323882696476" height="60.10360383877158" x="72.38325944235707" y="0" fill="#000000" opacity="1" stroke-width="0" stroke="transparent" fill-opacity="1" class="rect-r$-0" data-fill-palette-color="primary" rx="1%" id="r$-0" data-palette-color="#000000"></rect></g><g transform="matrix(1,0,0,1,91.89492451792069,0.14951145233525054)"><svg viewBox="0 0 395.52 59.80458093410108" height="59.80458093410108" width="395.52"><g id="textblocktransform"><svg viewBox="0 0 395.52 59.80458093410108" height="59.80458093410108" width="395.52" id="textblock"><g><svg viewBox="0 0 395.52 59.80458093410108" height="59.80458093410108" width="395.52"><g transform="matrix(1,0,0,1,0,0)"><svg width="395.52" viewBox="4.1 -34.9 234.43 35.449999999999996" height="59.80458093410108" data-palette-color="#000000"><path d="M10.7-13.45L10.7 0 4.1 0 4.1-34.9 19.85-34.9Q22.25-34.9 24.15-34.15 26.05-33.4 27.38-31.98 28.7-30.55 29.43-28.55 30.15-26.55 30.15-24.1L30.15-24.1Q30.15-20.5 28.53-17.9 26.9-15.3 23.65-14.2L23.65-14.2 30.8 0 23.45 0 16.95-13.45 10.7-13.45ZM10.7-19L19.2-19Q21.1-19 22.2-20.03 23.3-21.05 23.3-22.95L23.3-22.95 23.3-25.25Q23.3-27.15 22.2-28.15 21.1-29.15 19.2-29.15L19.2-29.15 10.7-29.15 10.7-19ZM51.7 0L35.85 0 35.85-5.3 40.45-5.3 40.45-29.6 35.85-29.6 35.85-34.9 51.7-34.9 51.7-29.6 47.05-29.6 47.05-5.3 51.7-5.3 51.7 0ZM60.1-34.9L77.7-34.9 77.7-9.8Q77.7-7.45 76.92-5.55 76.15-3.65 74.72-2.3 73.3-0.95 71.25-0.2 69.2 0.55 66.65 0.55L66.65 0.55Q61.8 0.55 59.1-1.98 56.4-4.5 55.65-8.7L55.65-8.7 61.75-9.95Q62.2-7.7 63.37-6.48 64.55-5.25 66.6-5.25L66.6-5.25Q68.55-5.25 69.82-6.48 71.1-7.7 71.1-10.25L71.1-10.25 71.1-29.5 60.1-29.5 60.1-34.9ZM106.19 0L95.69-17.9 92.09-25.15 91.94-25.15 91.94 0 85.69 0 85.69-34.9 92.94-34.9 103.44-17 107.04-9.75 107.19-9.75 107.19-34.9 113.44-34.9 113.44 0 106.19 0ZM121.64 0L121.64-34.9 134.34-34.9Q137.74-34.9 140.52-33.8 143.29-32.7 145.27-30.53 147.24-28.35 148.32-25.08 149.39-21.8 149.39-17.45L149.39-17.45Q149.39-13.1 148.32-9.83 147.24-6.55 145.27-4.38 143.29-2.2 140.52-1.1 137.74 0 134.34 0L134.34 0 121.64 0ZM128.24-5.85L134.34-5.85Q138.04-5.85 140.22-8.03 142.39-10.2 142.39-14.7L142.39-14.7 142.39-20.2Q142.39-24.7 140.22-26.88 138.04-29.05 134.34-29.05L134.34-29.05 128.24-29.05 128.24-5.85ZM183.04 0L176.19 0 173.39-8.9 160.99-8.9 158.24 0 151.54 0 163.24-34.9 171.44-34.9 183.04 0ZM171.79-14.55L167.29-28.9 167.04-28.9 162.59-14.55 171.79-14.55ZM211.19 0L188.19 0 188.19-34.9 211.19-34.9 211.19-29.05 194.78-29.05 194.78-20.6 209.29-20.6 209.29-14.75 194.78-14.75 194.78-5.85 211.19-5.85 211.19 0ZM238.53 0L218.18 0 218.18-34.9 224.78-34.9 224.78-5.85 238.53-5.85 238.53 0Z" opacity="1" transform="matrix(1,0,0,1,0,0)" fill="#000000" class="wordmark-text-0" data-fill-palette-color="primary" id="text-0"></path></svg></g></svg></g></svg></g></svg></g><g transform="matrix(1,0,0,1,0,0.14951145233525054)"><svg viewBox="0 0 58.26483319375823 59.80458093410108" height="59.80458093410108" width="58.26483319375823"><g><svg xmlns="http://www.w3.org/2000/svg" data-name="Layer 1" viewBox="2.29 1.002552646916794 95.47188701457806 97.99489470616642" x="0" y="0" height="59.80458093410108" width="58.26483319375823" class="icon-icon-0" data-fill-palette-color="accent" id="icon-0"><path d="M94.34 2.53a8 8 0 0 0-6.79-1.25A7.47 7.47 0 0 0 83 4.82a6.6 6.6 0 0 0-0.83 2.84 70.81 70.81 0 0 0-7.42-0.81A2.12 2.12 0 0 0 72.7 8l-0.14 0.28a206.81 206.81 0 0 0-8.6 20 61.9 61.9 0 0 0-8.6 1c-0.15 0-0.26 0.7-0.25 1.47s0.12 1.25 0.25 1.28a70.35 70.35 0 0 0 10.37 1.11 2.29 2.29 0 0 0 2.17-1.28l0.12-0.24a208.38 208.38 0 0 0 8.42-20.23c2.26-0.18 4.21-0.41 5.75-0.69A6.52 6.52 0 0 0 83 13.6a7.46 7.46 0 0 0 4.56 3.53 8 8 0 0 0 6.78-1.26 8.23 8.23 0 0 0 0-13.33Zm-3.21 9.11a3.4 3.4 0 0 1-2.55 0.81 4 4 0 0 1-2.37-1.09 5.23 5.23 0 0 1-1.29-2 3.61 3.61 0 0 0-1.44-0.16h0.2A3.2 3.2 0 0 0 85 9.05a5.19 5.19 0 0 1 1.26-2A3.93 3.93 0 0 1 88.58 6a3.41 3.41 0 0 1 2.54 0.79 3.18 3.18 0 0 1 0 4.85Z" fill="#000000" data-fill-palette-color="accent"></path><path d="M94.35 84.14a8 8 0 0 0-6.78-1.26A7.46 7.46 0 0 0 83 86.4a6.52 6.52 0 0 0-0.83 2.85c-1.54-0.28-3.49-0.51-5.75-0.69A208.41 208.41 0 0 0 68 68.34l-0.12-0.24a2.28 2.28 0 0 0-2.17-1.28 70.37 70.37 0 0 0-10.37 1.11c-0.15 0-0.26 0.7-0.25 1.47s0.12 1.25 0.25 1.28a61.89 61.89 0 0 0 8.6 1 206.8 206.8 0 0 0 8.6 20l0.14 0.29a2.11 2.11 0 0 0 2 1.16 70.83 70.83 0 0 0 7.42-0.81A6.6 6.6 0 0 0 83 95.18a7.47 7.47 0 0 0 4.57 3.54 8 8 0 0 0 6.79-1.25 8.23 8.23 0 0 0 0-13.33Zm-3.23 9.08a3.41 3.41 0 0 1-2.54 0.79 3.93 3.93 0 0 1-2.35-1.1 5.19 5.19 0 0 1-1.26-2 3.78 3.78 0 0 0-1.48-0.17h0.2a3 3 0 0 0 1.24-0.16 5.24 5.24 0 0 1 1.29-2 4 4 0 0 1 2.37-1.09 3.4 3.4 0 0 1 2.55 0.81 3.18 3.18 0 0 1 0 4.85Z" fill="#000000" data-fill-palette-color="accent"></path><path d="M61.2 84.14a8 8 0 0 0-6.78-1.26 7.46 7.46 0 0 0-4.56 3.53A6.55 6.55 0 0 0 49.05 89a27 27 0 0 0-6.66-0.94 20.88 20.88 0 0 0-4.06-6.25 4.92 4.92 0 0 0-1.4 0.46 4.09 4.09 0 0 0-1.13 0.6c-0.13 2 0.85 5.57 2.26 9a2.74 2.74 0 0 0 2.52 1.69h0a30.56 30.56 0 0 0 8.42-1 6.63 6.63 0 0 0 0.81 2.6 7.47 7.47 0 0 0 4.57 3.54 8 8 0 0 0 6.79-1.25 8.23 8.23 0 0 0 0-13.33ZM58 93.22a3.41 3.41 0 0 1-2.54 0.79 3.93 3.93 0 0 1-2.35-1.1 5.19 5.19 0 0 1-1.26-2 3.78 3.78 0 0 0-1.48-0.17h0.2a3 3 0 0 0 1.24-0.16 5.24 5.24 0 0 1 1.29-2 4 4 0 0 1 2.37-1.09 3.4 3.4 0 0 1 2.55 0.81 3.18 3.18 0 0 1 0 4.85Z" fill="#000000" data-fill-palette-color="accent"></path><path d="M54.4 1.28a7.47 7.47 0 0 0-4.57 3.54A6.63 6.63 0 0 0 49 7.43a30.56 30.56 0 0 0-8.42-1h0a2.73 2.73 0 0 0-2.51 1.69c-1.41 3.4-2.39 6.93-2.26 9a4.92 4.92 0 0 0 1.31 0.67 4.1 4.1 0 0 0 1.22 0.39 20.88 20.88 0 0 0 4.06-6.25A27 27 0 0 0 49.05 11a6.55 6.55 0 0 0 0.82 2.61 7.46 7.46 0 0 0 4.56 3.53 8 8 0 0 0 6.78-1.26 8.23 8.23 0 0 0 0-13.33A8 8 0 0 0 54.4 1.28ZM58 11.63a3.4 3.4 0 0 1-2.55 0.81 4 4 0 0 1-2.37-1.09 5.24 5.24 0 0 1-1.29-2 3.61 3.61 0 0 0-1.44-0.16h0.2a3.2 3.2 0 0 0 1.28-0.17 5.19 5.19 0 0 1 1.26-2A3.93 3.93 0 0 1 55.43 6 3.41 3.41 0 0 1 58 6.78a3.18 3.18 0 0 1 0 4.85Z" fill="#000000" data-fill-palette-color="accent"></path><path d="M38 75.67h0.65l0.92 0a9.13 9.13 0 0 0 3.53-1.09 9.23 9.23 0 0 0 4.45-5.67 11.65 11.65 0 0 0 0.32-3.29v-5l5.22 0h0a2.64 2.64 0 0 0 1.9-0.82l3.36-3.54 3.39 3.48 0 0 0.07 0.07a2.57 2.57 0 0 0 3.63-0.1L68.95 56l3.47 3.55 0 0a2.4 2.4 0 0 0 1.74 0.72l3.44 0h0.06a2.35 2.35 0 0 0 1.67-0.72l7.85-8.16 0 0a2.26 2.26 0 0 0 0-3.18l-8.06-8-0.05-0.05a2 2 0 0 0-1.47-0.59c-12 0.2-22.15 0.76-30.09 1.13a4.09 4.09 0 0 0-2.45 1.07c-0.44 0.49-0.19 0.89 0.58 0.93 7.64 0.37 18.2 0.91 31 1.12l5.65 5.91L76.65 55.4H75.27l-4.53-4.8-0.07-0.07a2.51 2.51 0 0 0-3.55 0l0 0L63.67 54.1l-3.4-3.59-0.08-0.08a2.62 2.62 0 0 0-3.71 0.06l0 0L52 55.16l-6.8 0h0a2.7 2.7 0 0 0-2.71 2.69v0q0 2.56 0 5.15v2.59a6.3 6.3 0 0 1-0.14 1.86 3.76 3.76 0 0 1-1.81 2.29 3.65 3.65 0 0 1-1.42 0.43l-0.39 0h-2l-20.93 0h-2.6c-0.81 0-1.92 0-2.26 0a3.77 3.77 0 0 1-3.18-2.8 3.16 3.16 0 0 1-0.11-0.74V65.47l0-5.1L7.44 40.51l0-4.79 0-2.36v-0.48a2.08 2.08 0 0 1 0-0.37 4 4 0 0 1 1.89-3A4.18 4.18 0 0 1 10.62 29a4.37 4.37 0 0 1 0.72-0.09l1.08 0 16.89-0.26L37 28.5l1.8 0a5 5 0 0 1 1.27 0.15 4.79 4.79 0 0 1 3.36 3.31 5.22 5.22 0 0 1 0.19 1.17l0.06 1.73c0.1 2.28 0.29 4.4 0.47 6.28 0.1 0.9 0.6 1.12 1.12 0.51a4.68 4.68 0 0 0 1-2.16c0.18-1.64 0.37-3.3 0.47-5l0.06-1.33a8.39 8.39 0 0 0-0.19-1.94 8 8 0 0 0-1.86-3.63 8.19 8.19 0 0 0-3.63-2.36 8.6 8.6 0 0 0-2.25-0.38l-1.85 0-7.65-0.15-16.89-0.26H11.27a9 9 0 0 0-1.52 0.14A8.81 8.81 0 0 0 2.6 31.87a6.19 6.19 0 0 0-0.08 0.8l0 0.4v0.3l0 2.36 0 4.79L2.29 60.37l0 5.1v1l0 0.44a8.45 8.45 0 0 0 0.25 1.8 9.16 9.16 0 0 0 7.71 6.89 13 13 0 0 0 1.64 0.08h3.9l20.93 0Z" fill="#000000" data-fill-palette-color="accent"></path><path d="M19.22 44.92a2.61 2.61 0 0 1 2.39 0.14 3.42 3.42 0 0 1 1.47 1.78 3.76 3.76 0 0 0 1.48 0.17c0.7 0 1.24-0.14 1.26-0.31a5.67 5.67 0 0 0-1.58-4.59 6.59 6.59 0 0 0-6.47-1.79 7 7 0 0 0-3.44 2.16 7.1 7.1 0 0 0-1.7 4l0 0.55v0.36l0 0.72 0 1.46 0 3a7.23 7.23 0 0 0 5.24 6.93 7.14 7.14 0 0 0 4.33-0.16 6.94 6.94 0 0 0 3.24-2.44A6.66 6.66 0 0 0 26.6 53.4a7.57 7.57 0 0 0 0-0.86L26.55 52l-0.13-1.1a34.61 34.61 0 0 0-0.61-3.63c0-0.14-0.68-0.24-1.44-0.23s-1.21 0.11-1.24 0.23a34.61 34.61 0 0 0-0.61 3.63L22.39 52l-0.06 0.57c0 0.1 0 0.21-0.08 0.31a2.44 2.44 0 0 1-0.65 1.05 2.19 2.19 0 0 1-2.29 0.49A2 2 0 0 1 18 52.53l0-3L18 46.87A2.17 2.17 0 0 1 19.22 44.92Z" fill="#000000" data-fill-palette-color="accent"></path><path d="M92 68.64A3.39 3.39 0 0 1 91 70.74a3.48 3.48 0 0 1-1.33 0.82 3.41 3.41 0 0 1-0.76 0.18 3.84 3.84 0 0 1-0.49 0l-0.62 0-2.39 0.11-0.58 0-0.49 0a3.76 3.76 0 0 1-0.74 0 4.22 4.22 0 0 1-2.46-1.27 4.65 4.65 0 0 1-1.19-2.21c0-0.21-0.72-0.39-1.49-0.38s-1.23 0.27-1.25 0.6a7.09 7.09 0 0 0 1.24 4.05 7.65 7.65 0 0 0 5.72 3.31l0.65 0 0.58 0 2.39 0.11 0.62 0c0.18 0 0.46 0 0.76 0A7.85 7.85 0 0 0 90.91 76a8.07 8.07 0 0 0 3.24-1.65 8.47 8.47 0 0 0 2.3-3A8.62 8.62 0 0 0 97 69.46a10.64 10.64 0 0 0 0.15-1.81l0.11-5.8c0.06-3.94 0.08-8 0.08-12.08s0-8.14-0.09-12.08l-0.11-5.8v-0.35l0-0.47a6.75 6.75 0 0 0-0.12-1 8.63 8.63 0 0 0-0.58-1.88 8.47 8.47 0 0 0-2.3-3 8.06 8.06 0 0 0-3.24-1.64 7.75 7.75 0 0 0-1.74-0.24h-0.76l-0.62 0-2.39 0.12-0.58 0-0.29 0-0.37 0a7.4 7.4 0 0 0-1.46 0.26 7.52 7.52 0 0 0-4.23 3.06 7 7 0 0 0-1.22 4c0 0.36 0.66 0.62 1.41 0.58s1.22-0.18 1.26-0.37a4.67 4.67 0 0 1 1.2-2.23 4.24 4.24 0 0 1 2.48-1.28 3.7 3.7 0 0 1 0.74 0h0.2l0.29 0 0.58 0 2.39 0.12 0.62 0 0.3 0 0.2 0a3.36 3.36 0 0 1 0.76 0.18 3.51 3.51 0 0 1 1.34 0.82 3.74 3.74 0 0 1 0.88 1.33 3.79 3.79 0 0 1 0.18 0.78 2.16 2.16 0 0 1 0 0.4v0.59L92 37.68c-0.06 3.94-0.09 8-0.09 12.08s0 8.14 0.08 12.08l0.11 5.8c0 0.24 0 0.5 0 0.59A2.07 2.07 0 0 1 92 68.64Z" fill="#000000" data-fill-palette-color="accent"></path></svg></g></svg></g></svg></g><defs></defs></svg><rect width="395.52" height="48.77195217980427" fill="none" stroke="none" visibility="hidden"></rect></g></svg></g></svg>